<svg xmlns="http://www.w3.org/2000/svg" xmlns:xlink="http://www.w3.org/1999/xlink" width="512" zoomAndPan="magnify" viewBox="0 0 384 383.999986" height="512" preserveAspectRatio="xMidYMid meet" version="1.0"><path fill="#ffde59" d="M 217.191406 282.765625 C 199.253906 246.464844 193.367188 221.464844 192.226562 216.054688 C 192.117188 216.0625 192.007812 216.070312 191.898438 216.070312 C 191.859375 216.070312 191.824219 216.066406 191.785156 216.066406 C 190.636719 221.496094 184.746094 246.488281 166.820312 282.765625 C 146.476562 323.941406 150.347656 384.003906 192 384.011719 L 192.007812 384.011719 C 233.664062 384.003906 237.535156 323.941406 217.191406 282.765625 Z M 217.191406 282.765625 " fill-opacity="1" fill-rule="nonzero"/><path fill="#ffde59" d="M 166.820312 101.246094 C 184.757812 137.550781 190.644531 162.546875 191.785156 167.957031 C 191.894531 167.949219 192.003906 167.941406 192.113281 167.941406 C 192.152344 167.941406 192.1875 167.945312 192.226562 167.945312 C 193.375 162.515625 199.265625 137.523438 217.191406 101.246094 C 237.535156 60.070312 233.664062 0.0078125 192.011719 0 L 192 0 C 150.347656 0.0078125 146.476562 60.070312 166.820312 101.246094 Z M 166.820312 101.246094 " fill-opacity="1" fill-rule="nonzero"/><path fill="#ffde59" d="M 282.765625 166.820312 C 246.464844 184.757812 221.464844 190.644531 216.054688 191.785156 C 216.0625 191.894531 216.070312 192.003906 216.070312 192.113281 C 216.070312 192.152344 216.066406 192.1875 216.066406 192.226562 C 221.496094 193.375 246.488281 199.265625 282.765625 217.191406 C 323.941406 237.535156 384.003906 233.664062 384.011719 192.011719 L 384.011719 192 C 384.003906 150.347656 323.941406 146.476562 282.765625 166.820312 Z M 282.765625 166.820312 " fill-opacity="1" fill-rule="nonzero"/><path fill="#ffde59" d="M 101.246094 217.191406 C 137.550781 199.253906 162.546875 193.367188 167.957031 192.226562 C 167.949219 192.117188 167.941406 192.007812 167.941406 191.898438 C 167.941406 191.859375 167.945312 191.824219 167.945312 191.785156 C 162.515625 190.636719 137.523438 184.746094 101.246094 166.820312 C 60.070312 146.476562 0.0078125 150.347656 0 192 L 0 192.011719 C 0.0078125 233.664062 60.070312 237.535156 101.246094 217.191406 Z M 101.246094 217.191406 " fill-opacity="1" fill-rule="nonzero"/><path fill="#ffde59" d="M 258.304688 231.085938 C 227.78125 220.753906 210.398438 209.996094 206.710938 207.59375 C 206.65625 207.660156 206.601562 207.726562 206.539062 207.789062 C 206.515625 207.808594 206.492188 207.828125 206.46875 207.847656 C 208.882812 211.550781 219.628906 228.929688 229.957031 259.433594 C 241.679688 294.050781 277.660156 325.671875 301.101562 302.238281 L 301.109375 302.234375 C 324.542969 278.789062 292.921875 242.808594 258.304688 231.085938 Z M 258.304688 231.085938 " fill-opacity="1" fill-rule="nonzero"/><path fill="#ffde59" d="M 127.808594 157.285156 C 158.332031 167.621094 175.710938 178.375 179.398438 180.777344 C 179.457031 180.710938 179.511719 180.644531 179.570312 180.582031 C 179.59375 180.5625 179.617188 180.542969 179.640625 180.523438 C 177.230469 176.820312 166.480469 159.441406 156.152344 128.9375 C 144.433594 94.320312 108.453125 62.699219 85.007812 86.132812 L 85.003906 86.136719 C 61.566406 109.582031 93.1875 145.5625 127.808594 157.285156 Z M 127.808594 157.285156 " fill-opacity="1" fill-rule="nonzero"/><path fill="#ffde59" d="M 229.957031 128.9375 C 219.621094 159.460938 208.867188 176.84375 206.464844 180.53125 C 206.53125 180.585938 206.597656 180.640625 206.65625 180.703125 C 206.679688 180.726562 206.699219 180.75 206.71875 180.769531 C 210.421875 178.359375 227.796875 167.613281 258.304688 157.285156 C 292.921875 145.5625 324.542969 109.582031 301.105469 86.136719 L 301.101562 86.132812 C 277.660156 62.699219 241.679688 94.320312 229.957031 128.9375 Z M 229.957031 128.9375 " fill-opacity="1" fill-rule="nonzero"/><path fill="#ffde59" d="M 156.152344 259.433594 C 166.488281 228.910156 177.246094 211.527344 179.644531 207.84375 C 179.582031 207.785156 179.515625 207.730469 179.453125 207.667969 C 179.429688 207.648438 179.414062 207.621094 179.390625 207.601562 C 175.6875 210.011719 158.3125 220.757812 127.808594 231.085938 C 93.1875 242.808594 61.566406 278.789062 85.003906 302.234375 L 85.007812 302.238281 C 108.453125 325.671875 144.433594 294.050781 156.152344 259.433594 Z M 156.152344 259.433594 " fill-opacity="1" fill-rule="nonzero"/></svg>